<?xml version="1.0" encoding="utf-8"?>
<!-- Generator: Adobe Illustrator 25.4.1, SVG Export Plug-In . SVG Version: 6.00 Build 0)  -->
<svg version="1.1" id="レイヤー_1" xmlns="http://www.w3.org/2000/svg" xmlns:xlink="http://www.w3.org/1999/xlink" x="0px"
	 y="0px" viewBox="0 0 566.93 119.06" style="enable-background:new 0 0 566.93 119.06;" xml:space="preserve">
<style type="text/css">
	.st0{font-family:'AliceinWonderland';}
	.st1{font-size:30px;}
	.st2{font-family:'KozGoPr6N-Regular-83pv-RKSJ-H';}
	.st3{font-size:13.5239px;}
	.st4{font-size:39.4341px;}
	.st5{font-size:41.5362px;}
	.st6{font-size:35px;}
	.st7{font-size:32.3881px;}
</style>
<text transform="matrix(0.9778 -0.3135 0.3053 0.9523 24.4013 56.8284)"><tspan x="0" y="0" class="st0 st1">K</tspan><tspan x="20" y="-5.36" class="st2 st3">　</tspan></text>
<text transform="matrix(0.8301 -0.3305 0.37 0.929 41.6238 48.5764)" class="st0 st4">i</text>
<text transform="matrix(0.9781 -0.2083 0.2083 0.9781 45.3874 46.1764)" class="st0 st1">T</text>
<text transform="matrix(0.9856 -0.1691 0.1691 0.9856 53.387 47.7698)" class="st0 st1">A</text>
<text transform="matrix(1 0 0 1 68.2362 41.6885)" class="st0 st1">H</text>
<text transform="matrix(0.9972 0.0746 -0.0746 0.9972 80.8821 44.9258)" class="st0 st1">A</text>
<text transform="matrix(0.9852 0.1713 -0.1713 0.9852 97.2546 43.5016)" class="st0 st1">S</text>
<text transform="matrix(0.9444 0.3289 -0.3289 0.9444 105.4434 48.5205)" class="st0 st1">H</text>
<text transform="matrix(0.9181 0.3963 -0.3963 0.9181 116.8366 56.8263)" class="st0 st1">I</text>
<text transform="matrix(1.7389 0 0 1 57.467 74.9756)" class="st0 st5">H</text>
<text transform="matrix(1.6172 0 0 1 41.8882 99.141)" class="st0 st6">T</text>
<text transform="matrix(1.2171 0 0 1 62.502 102.5078)" class="st0 st7">e</text>
<text transform="matrix(0.9168 0 0 1 72.3028 102.5078)" class="st0 st6">A</text>
<text transform="matrix(0.9168 0 0 1 89.245 99.9781)" class="st0 st6">M</text>
</svg>
